<?xml version="1.0" encoding="UTF-8" standalone="no"?>
<!-- Created with Inkscape (http://www.inkscape.org/) -->

<svg
   xmlns:dc="http://purl.org/dc/elements/1.1/"
   xmlns:cc="http://creativecommons.org/ns#"
   xmlns:rdf="http://www.w3.org/1999/02/22-rdf-syntax-ns#"
   xmlns:svg="http://www.w3.org/2000/svg"
   xmlns="http://www.w3.org/2000/svg"
   xmlns:sodipodi="http://sodipodi.sourceforge.net/DTD/sodipodi-0.dtd"
   xmlns:inkscape="http://www.inkscape.org/namespaces/inkscape"
   id="svg2"
   version="1.1"
   inkscape:version="0.92.4 (unknown)"
   width="32"
   height="32"
   xml:space="preserve"
   sodipodi:docname="group_icon_open.svg"><metadata
     id="metadata8"><rdf:RDF><cc:Work
         rdf:about=""><dc:format>image/svg+xml</dc:format><dc:type
           rdf:resource="http://purl.org/dc/dcmitype/StillImage" /><dc:title /></cc:Work></rdf:RDF></metadata><defs
     id="defs6" /><sodipodi:namedview
     pagecolor="#ffffff"
     bordercolor="#666666"
     borderopacity="1"
     objecttolerance="10"
     gridtolerance="10"
     guidetolerance="10"
     inkscape:pageopacity="0"
     inkscape:pageshadow="2"
     inkscape:window-width="2560"
     inkscape:window-height="1376"
     id="namedview4"
     showgrid="false"
     inkscape:zoom="8.4285714"
     inkscape:cx="0.29661012"
     inkscape:cy="14"
     inkscape:window-x="0"
     inkscape:window-y="27"
     inkscape:window-maximized="1"
     inkscape:current-layer="g12" /><g
     id="g10"
     inkscape:groupmode="layer"
     inkscape:label="group_icon_open"
     transform="matrix(1.25,0,0,-1.25,0,32)"><g
       id="g12"
       transform="matrix(1.1429592,0,0,1.1429592,0,-2.8591839e-4)"><path
         style="fill:#b2b2b2;fill-opacity:1;fill-rule:evenodd;stroke:none;stroke-width:1.42869902"
         d="m 16,-0.00195313 c -8.8336459,0 -16,7.16635413 -16,16.00000013 0,8.840789 7.1663541,16 16,16 8.840789,0 16,-7.159211 16,-16 C 32,7.164401 24.840789,-0.00195313 16,-0.00195313 Z M 16.01953,11.601562 a 1.0001,1.0001 0 0 1 0.689453,0.291016 l 6.78711,6.791016 a 1.0001,1.0001 0 1 1 -1.416016,1.412109 l -6.076172,-6.082031 -6.0859372,6.085937 a 1.0001,1.0001 0 0 1 -0.71875,0.300782 1.0001,1.0001 0 0 1 -0.6972657,-1.716797 l 6.7949219,-6.791016 a 1.0001,1.0001 0 0 1 0.722656,-0.291016 z"
         transform="matrix(0.6999375,0,0,-0.6999375,0,22.39825)"
         id="path14"
         inkscape:connector-curvature="0" /></g></g></svg>
