<?xml version="1.0" encoding="UTF-8" standalone="no"?>
<!-- Created with Inkscape (http://www.inkscape.org/) -->

<svg
   xmlns:dc="http://purl.org/dc/elements/1.1/"
   xmlns:cc="http://creativecommons.org/ns#"
   xmlns:rdf="http://www.w3.org/1999/02/22-rdf-syntax-ns#"
   xmlns:svg="http://www.w3.org/2000/svg"
   xmlns="http://www.w3.org/2000/svg"
   xmlns:sodipodi="http://sodipodi.sourceforge.net/DTD/sodipodi-0.dtd"
   xmlns:inkscape="http://www.inkscape.org/namespaces/inkscape"
   id="svg2"
   version="1.1"
   inkscape:version="0.48.5 r10040"
   width="32"
   height="32"
   xml:space="preserve"
   sodipodi:docname="group_icon_closed.svg"><metadata
     id="metadata8"><rdf:RDF><cc:Work
         rdf:about=""><dc:format>image/svg+xml</dc:format><dc:type
           rdf:resource="http://purl.org/dc/dcmitype/StillImage" /><dc:title /></cc:Work></rdf:RDF></metadata><defs
     id="defs6" /><sodipodi:namedview
     pagecolor="#ffffff"
     bordercolor="#666666"
     borderopacity="1"
     objecttolerance="10"
     gridtolerance="10"
     guidetolerance="10"
     inkscape:pageopacity="0"
     inkscape:pageshadow="2"
     inkscape:window-width="1271"
     inkscape:window-height="747"
     id="namedview4"
     showgrid="false"
     inkscape:zoom="8.4285714"
     inkscape:cx="14"
     inkscape:cy="14"
     inkscape:window-x="0"
     inkscape:window-y="0"
     inkscape:window-maximized="0"
     inkscape:current-layer="g10" /><g
     id="g10"
     inkscape:groupmode="layer"
     inkscape:label="group_icon_closed"
     transform="matrix(1.25,0,0,-1.25,0,32)"><g
       id="g12"
       transform="matrix(1.1429592,0,0,1.1429592,0,-2.8591839e-4)"><path
         d="m 11.199,21.334 c 5.547,0 10.133,-4.586 10.133,-10.133 0,-5.547 -4.586,-10.133 -10.133,-10.133 -5.547,0 -10.133,4.586 -10.133,10.133 0,5.547 4.586,10.133 10.133,10.133 m 0,1.066 C 5.012,22.4 0,17.388 0,11.201 0,5.013 5.012,0.002 11.199,0.002 c 6.188,0 11.199,5.011 11.199,11.199 0,6.187 -5.011,11.199 -11.199,11.199 z"
         style="fill:#b2b2b2;fill-opacity:1;fill-rule:nonzero;stroke:none"
         id="path14"
         inkscape:connector-curvature="0" /></g></g></svg>